<mxfile host="Electron" modified="2024-02-11T17:49:50.822Z" agent="Mozilla/5.0 (Windows NT 10.0; Win64; x64) AppleWebKit/537.36 (KHTML, like Gecko) draw.io/23.0.2 Chrome/120.0.6099.109 Electron/28.1.0 Safari/537.36" etag="WOBPzbJzYZit2jyyf3LQ" version="23.0.2" type="device">
  <diagram name="Pagina-1" id="kaAqXzKs_8V2nr_U58Uy">
    <mxGraphModel dx="863" dy="505" grid="1" gridSize="10" guides="1" tooltips="1" connect="1" arrows="1" fold="1" page="1" pageScale="1" pageWidth="827" pageHeight="1169" math="0" shadow="0">
      <root>
        <mxCell id="0" />
        <mxCell id="1" parent="0" />
        <mxCell id="BJDROV_153uYnADDejVr-1" value="" style="rounded=1;whiteSpace=wrap;html=1;fillColor=none;" vertex="1" parent="1">
          <mxGeometry x="240" y="230" width="320" height="170" as="geometry" />
        </mxCell>
        <mxCell id="BJDROV_153uYnADDejVr-5" style="edgeStyle=orthogonalEdgeStyle;rounded=0;orthogonalLoop=1;jettySize=auto;html=1;exitX=1;exitY=0.75;exitDx=0;exitDy=0;entryX=0;entryY=0.75;entryDx=0;entryDy=0;" edge="1" parent="1" source="BJDROV_153uYnADDejVr-2" target="BJDROV_153uYnADDejVr-3">
          <mxGeometry relative="1" as="geometry" />
        </mxCell>
        <mxCell id="BJDROV_153uYnADDejVr-6" style="edgeStyle=orthogonalEdgeStyle;rounded=0;orthogonalLoop=1;jettySize=auto;html=1;exitX=0.25;exitY=0;exitDx=0;exitDy=0;entryX=0.25;entryY=0;entryDx=0;entryDy=0;" edge="1" parent="1" target="BJDROV_153uYnADDejVr-2">
          <mxGeometry relative="1" as="geometry">
            <mxPoint x="280" y="180" as="sourcePoint" />
          </mxGeometry>
        </mxCell>
        <mxCell id="BJDROV_153uYnADDejVr-7" style="edgeStyle=orthogonalEdgeStyle;rounded=0;orthogonalLoop=1;jettySize=auto;html=1;exitX=0.507;exitY=1.093;exitDx=0;exitDy=0;entryX=0.5;entryY=0;entryDx=0;entryDy=0;exitPerimeter=0;" edge="1" parent="1" source="BJDROV_153uYnADDejVr-14" target="BJDROV_153uYnADDejVr-2">
          <mxGeometry relative="1" as="geometry">
            <mxPoint x="310.28571428571433" y="180" as="sourcePoint" />
          </mxGeometry>
        </mxCell>
        <mxCell id="BJDROV_153uYnADDejVr-8" style="edgeStyle=orthogonalEdgeStyle;rounded=0;orthogonalLoop=1;jettySize=auto;html=1;exitX=0.75;exitY=0;exitDx=0;exitDy=0;entryX=0.75;entryY=0;entryDx=0;entryDy=0;" edge="1" parent="1" target="BJDROV_153uYnADDejVr-2">
          <mxGeometry relative="1" as="geometry">
            <mxPoint x="340" y="180" as="sourcePoint" />
          </mxGeometry>
        </mxCell>
        <mxCell id="BJDROV_153uYnADDejVr-9" style="edgeStyle=orthogonalEdgeStyle;rounded=0;orthogonalLoop=1;jettySize=auto;html=1;exitX=0.75;exitY=1;exitDx=0;exitDy=0;" edge="1" parent="1" source="BJDROV_153uYnADDejVr-2">
          <mxGeometry relative="1" as="geometry">
            <mxPoint x="340" y="460" as="targetPoint" />
          </mxGeometry>
        </mxCell>
        <mxCell id="BJDROV_153uYnADDejVr-11" style="edgeStyle=orthogonalEdgeStyle;rounded=0;orthogonalLoop=1;jettySize=auto;html=1;exitX=0.25;exitY=1;exitDx=0;exitDy=0;" edge="1" parent="1" source="BJDROV_153uYnADDejVr-2">
          <mxGeometry relative="1" as="geometry">
            <mxPoint x="280" y="460" as="targetPoint" />
          </mxGeometry>
        </mxCell>
        <mxCell id="BJDROV_153uYnADDejVr-2" value="Datapath" style="rounded=1;whiteSpace=wrap;html=1;fillColor=none;" vertex="1" parent="1">
          <mxGeometry x="250" y="250" width="120" height="130" as="geometry" />
        </mxCell>
        <mxCell id="BJDROV_153uYnADDejVr-4" style="edgeStyle=orthogonalEdgeStyle;rounded=0;orthogonalLoop=1;jettySize=auto;html=1;exitX=0;exitY=0.25;exitDx=0;exitDy=0;entryX=1;entryY=0.25;entryDx=0;entryDy=0;" edge="1" parent="1" source="BJDROV_153uYnADDejVr-3" target="BJDROV_153uYnADDejVr-2">
          <mxGeometry relative="1" as="geometry" />
        </mxCell>
        <mxCell id="BJDROV_153uYnADDejVr-3" value="FSM" style="rounded=1;whiteSpace=wrap;html=1;fillColor=none;" vertex="1" parent="1">
          <mxGeometry x="430" y="250" width="120" height="130" as="geometry" />
        </mxCell>
        <mxCell id="BJDROV_153uYnADDejVr-12" value="MANCHE" style="text;html=1;align=center;verticalAlign=middle;resizable=0;points=[];autosize=1;strokeColor=none;fillColor=none;" vertex="1" parent="1">
          <mxGeometry x="230" y="468" width="80" height="30" as="geometry" />
        </mxCell>
        <mxCell id="BJDROV_153uYnADDejVr-13" value="PARTITA" style="text;html=1;align=center;verticalAlign=middle;resizable=0;points=[];autosize=1;strokeColor=none;fillColor=none;" vertex="1" parent="1">
          <mxGeometry x="310" y="468" width="70" height="30" as="geometry" />
        </mxCell>
        <mxCell id="BJDROV_153uYnADDejVr-14" value="INIZIA" style="text;html=1;align=center;verticalAlign=middle;resizable=0;points=[];autosize=1;strokeColor=none;fillColor=none;" vertex="1" parent="1">
          <mxGeometry x="280" y="110" width="60" height="30" as="geometry" />
        </mxCell>
        <mxCell id="BJDROV_153uYnADDejVr-15" value="PRIMO" style="text;html=1;align=center;verticalAlign=middle;resizable=0;points=[];autosize=1;strokeColor=none;fillColor=none;" vertex="1" parent="1">
          <mxGeometry x="240" y="148" width="60" height="30" as="geometry" />
        </mxCell>
        <mxCell id="BJDROV_153uYnADDejVr-16" value="SECONDO" style="text;html=1;align=center;verticalAlign=middle;resizable=0;points=[];autosize=1;strokeColor=none;fillColor=none;" vertex="1" parent="1">
          <mxGeometry x="320" y="148" width="80" height="30" as="geometry" />
        </mxCell>
      </root>
    </mxGraphModel>
  </diagram>
</mxfile>
